# xmcd CD database file
#
# Track frame offsets:
#	150
#	40396
#	64854
#	84439
#	97071
#	115912
#	131498
#	145683
#	171040
#	191941
#	219084
#	241955
#	263930
#	280647
#	296624
#
# Disc length: 4115 seconds
#
# Revision: 5
# Processed by: cddbd v1.5.2PL0 Copyright (c) Steve Scherf et al.
# Submitted via: CDex 1.51
#
DISCID=de10110f
DTITLE=Jacques Loussier - Play Bach Highlights
DYEAR=2008
DGENRE=Jazz
TTITLE0=Toccata and Fugue  in D minor, BWV 565  [1959]
TTITLE1=Prelude N°1  in C major, Book 1, BWV 846  [1959]
TTITLE2=Prelude N°2  in C minor, Book 1, BWV 847  [1959]
TTITLE3=Fugue N°2  in C minor, Book 1, BWV 847  [1959]
TTITLE4=Cantata N°147, BWV 147  [1960]
TTITLE5=Aria, Orchestral Suite N°3  in D major, BWV 1068  [1960]
TTITLE6=Gigue, Partita N°1  in B flat major, BWV 825  [1960]
TTITLE7=Italian Concerto  in F major, BWV 971 - Allegro  [1961]
TTITLE8=Italian Concerto  in F major, BWV 971 - Andante  [1961]
TTITLE9=Italian Concerto  in F major, BWV 971 - Presto  [1961]
TTITLE10=Fantasia  in C minor, BWV 906  [1961]
TTITLE11=Choral N°1, BWV 645  [1963]
TTITLE12=Cantata N°29, BWV 29  [1963]
TTITLE13=Sonata for Flute and Harpsichord  in E flat, BWV 1031  [1965]
TTITLE14=Passacaglia  in C minor, BWV 582  [1965]
EXTD=YEAR: 2008
EXTT0=
EXTT1=
EXTT2=
EXTT3=
EXTT4=
EXTT5=
EXTT6=
EXTT7=
EXTT8=
EXTT9=
EXTT10=
EXTT11=
EXTT12=
EXTT13=
EXTT14=
PLAYORDER=
